<mxfile host="app.diagrams.net" modified="2023-11-13T04:46:08.815Z" agent="Mozilla/5.0 (Windows NT 10.0; Win64; x64) AppleWebKit/537.36 (KHTML, like Gecko) Chrome/119.0.0.0 Safari/537.36 Edg/119.0.0.0" version="22.1.0" etag="uZcDx6loHWAVvGl6oImq" type="github">
  <diagram name="Page-1" id="bt9SU6ZH0CoPSURDWzX1">
    <mxGraphModel>
      <root>
        <mxCell id="0" />
        <mxCell id="1" parent="0" />
      </root>
    </mxGraphModel>
  </diagram>
</mxfile>
